<?xml version="1.0" standalone="no"?>
<!DOCTYPE svg PUBLIC "-//W3C//DTD SVG 20010904//EN"
 "http://www.w3.org/TR/2001/REC-SVG-20010904/DTD/svg10.dtd">
<svg version="1.0" xmlns="http://www.w3.org/2000/svg"
 width="700.000000pt" height="700.000000pt" viewBox="0 0 700.000000 700.000000"
 preserveAspectRatio="xMidYMid meet">
<metadata>
Created by potrace 1.14, written by Peter Selinger 2001-2017
</metadata>
<g transform="translate(0.000000,700.000000) scale(0.100000,-0.100000)"
fill="#000000" stroke="none">
<path d="M1870 6989 c0 -4 -9 -11 -20 -14 -11 -3 -20 -14 -20 -24 0 -10 -3
-21 -7 -25 -5 -4 -9 -114 -10 -244 -3 -282 -2 -266 -22 -249 -19 17 -49 29
-75 32 -11 1 -22 7 -24 14 -2 6 -7 9 -12 6 -4 -3 -38 6 -75 20 -36 14 -77 26
-91 27 -13 1 -24 5 -24 9 0 4 -13 6 -29 5 -17 -1 -28 2 -25 6 3 4 -3 9 -13 10
-33 2 -38 3 -51 12 -7 4 -16 5 -19 2 -3 -3 -11 -2 -18 4 -6 5 -28 10 -48 12
-20 1 -37 5 -37 8 0 8 -29 5 -55 -5 -26 -10 -56 -41 -48 -49 4 -3 2 -6 -4 -6
-6 0 -10 -19 -9 -45 1 -25 -1 -45 -5 -45 -3 0 -3 -18 1 -40 4 -22 5 -40 1 -40
-3 0 -4 -36 -1 -80 3 -44 1 -80 -3 -80 -4 0 -3 -9 3 -19 7 -14 7 -22 -1 -27
-8 -4 -7 -9 2 -15 11 -7 11 -9 1 -9 -10 0 -10 -5 -2 -20 8 -15 8 -20 -2 -20
-9 0 -9 -3 2 -10 9 -6 11 -10 3 -10 -7 0 -10 -7 -7 -15 9 -23 10 -175 1 -175
-4 0 -3 -9 3 -19 7 -14 7 -22 -1 -27 -8 -4 -7 -9 2 -15 11 -7 11 -9 1 -9 -10
0 -10 -5 -2 -20 8 -15 8 -20 -2 -20 -9 0 -9 -3 2 -10 11 -7 11 -10 2 -10 -7 0
-10 -5 -7 -11 12 -18 12 -69 1 -69 -6 0 -4 -5 4 -10 13 -9 13 -10 0 -10 -13 0
-13 -1 0 -10 13 -9 13 -10 0 -10 -9 0 -11 -3 -5 -8 11 -8 14 -122 3 -122 -4 0
-3 -13 2 -30 5 -19 5 -32 -2 -36 -6 -4 -5 -10 3 -15 8 -5 9 -9 3 -9 -7 0 -9
-15 -4 -45 4 -25 3 -45 -1 -45 -4 0 -4 -13 1 -29 5 -19 4 -33 -3 -40 -6 -6 -7
-11 -2 -11 6 0 10 -29 10 -65 0 -37 -4 -65 -10 -65 -5 0 -4 -4 3 -9 11 -6 11
-10 0 -19 -7 -5 -17 -11 -23 -12 -5 -2 -14 -4 -20 -5 -22 -6 -151 -39 -160
-41 -5 -2 -20 -5 -32 -8 -12 -2 -30 -9 -41 -15 -11 -6 -22 -7 -26 -4 -3 3 -6
2 -6 -4 0 -5 -6 -10 -12 -11 -51 -6 -98 -22 -98 -33 0 -5 -7 -6 -15 -3 -8 4
-15 1 -15 -6 0 -6 -4 -9 -9 -5 -5 3 -36 -7 -67 -21 -32 -14 -63 -27 -68 -28
-41 -7 -85 -62 -89 -113 0 -13 -6 -19 -14 -16 -7 3 -13 -1 -13 -8 0 -9 -3 -10
-8 -4 -10 14 -65 15 -74 1 -6 -8 -8 -8 -8 0 0 6 -11 12 -25 12 -14 0 -25 -6
-25 -12 0 -8 -2 -8 -8 0 -6 10 -45 12 -62 4 -3 -1 -17 -2 -32 -2 -16 -1 -28
-4 -28 -9 0 -4 -10 -11 -22 -15 -37 -11 -102 -87 -116 -135 -10 -35 -12 -373
-10 -1650 3 -1514 4 -1606 20 -1623 10 -10 18 -15 18 -11 0 4 7 -1 16 -9 8 -9
20 -14 25 -11 5 4 9 1 9 -5 0 -6 4 -9 8 -6 4 2 9 -4 9 -15 1 -11 -2 -17 -6
-15 -4 3 -8 -1 -8 -9 0 -8 4 -15 9 -15 11 0 6 -23 -7 -32 -7 -5 -6 -8 0 -8 12
0 13 -69 2 -87 -5 -7 -4 -13 0 -13 5 0 9 -9 10 -20 1 -11 -2 -18 -8 -15 -5 4
-5 -3 0 -18 6 -16 6 -28 -2 -36 -8 -8 -8 -11 1 -11 14 0 12 -21 -3 -32 -6 -5
-6 -8 1 -8 6 0 10 -15 8 -38 -3 -50 -2 -49 -16 -49 -29 -1 -44 -10 -66 -38
-22 -29 -22 -32 -22 -337 1 -185 5 -310 11 -313 5 -4 7 -11 4 -16 -4 -5 -1 -9
5 -9 6 0 9 -4 6 -9 -3 -4 6 -21 19 -37 14 -16 25 -33 25 -37 0 -5 3 -6 8 -4
10 6 42 -30 34 -39 -4 -4 1 -4 10 -1 10 3 20 2 23 -3 3 -5 13 -10 23 -11 9 -1
715 -2 1567 -3 l1550 -1 41 42 c23 23 40 45 38 48 -2 3 -1 3 2 0 4 -2 23 4 44
15 21 11 41 16 44 12 4 -3 11 0 16 8 6 8 10 11 10 5 0 -5 18 -9 40 -9 22 1 43
-2 46 -7 3 -5 14 -9 25 -9 10 0 19 -5 19 -12 0 -6 3 -8 6 -5 4 4 24 -11 45
-33 22 -22 39 -37 39 -34 0 3 7 -1 15 -10 14 -13 188 -15 1557 -15 1179 0
1546 3 1557 12 8 7 15 10 15 9 2 -8 62 25 83 46 12 12 20 22 18 22 -3 0 4 9
15 20 12 12 18 25 15 30 -3 4 1 10 7 12 10 4 13 453 13 2229 l0 2224 -32 45
c-44 63 -87 95 -142 105 -13 2 -26 7 -29 10 -3 2 -12 -1 -20 -8 -10 -7 -13 -7
-9 -1 5 8 -10 11 -48 11 -31 -1 -55 -6 -55 -12 0 -5 -4 -4 -8 3 -9 13 -38 12
-61 -2 -10 -7 -12 -6 -6 4 6 10 3 12 -12 8 -17 -4 -20 0 -21 26 0 17 -6 32
-11 34 -6 2 -11 8 -11 13 0 5 -9 18 -20 29 -11 11 -20 17 -20 13 0 -3 -9 2
-20 12 -11 10 -20 15 -20 12 0 -4 -21 3 -47 14 -27 12 -57 23 -67 25 -11 2
-22 7 -25 12 -3 5 -14 8 -23 6 -10 -1 -18 2 -18 7 0 5 -3 8 -7 7 -13 -2 -67
14 -80 24 -7 5 -16 7 -22 4 -13 -8 -20 17 -16 54 3 20 0 28 -6 24 -8 -4 -8 0
-2 12 11 24 10 345 -2 363 -5 10 -4 12 3 7 13 -8 9 54 -4 76 -4 7 -3 8 4 4 12
-7 10 53 -3 75 -5 8 -4 10 3 5 9 -5 11 3 8 26 -7 54 -18 88 -27 88 -5 0 -9 8
-9 17 0 9 -3 14 -6 11 -3 -4 -17 0 -31 7 -16 9 -35 10 -54 5 -16 -5 -29 -6
-29 -2 0 9 -125 6 -140 -3 -7 -4 -16 -1 -21 6 -5 8 -9 9 -9 4 0 -6 -30 -12
-67 -13 -37 -2 -74 -9 -82 -15 -9 -8 -12 -8 -8 -1 4 8 -7 10 -36 7 -23 -3 -61
-6 -84 -6 -22 -1 -39 -5 -36 -9 2 -5 -6 -7 -19 -7 -13 1 -48 -2 -78 -6 -30 -5
-63 -8 -72 -9 -10 0 -18 -3 -18 -6 0 -3 -10 -6 -22 -7 -13 0 -34 -3 -48 -6
-60 -14 -77 -18 -110 -23 -19 -3 -38 -8 -43 -11 -9 -6 -56 -16 -79 -17 -10 0
-18 -4 -18 -9 0 -4 -4 -5 -10 -2 -5 3 -16 3 -22 -2 -7 -4 -16 -8 -20 -9 -5 -1
-9 -2 -10 -4 -4 -2 -40 -10 -60 -12 -10 -1 -18 -6 -18 -11 0 -4 -4 -6 -9 -2
-5 3 -12 1 -16 -5 -4 -6 -10 -8 -15 -5 -5 3 -20 0 -32 -7 -13 -7 -30 -13 -38
-14 -8 -1 -38 -11 -66 -22 -29 -12 -55 -18 -58 -15 -3 4 -6 1 -6 -5 0 -7 -3
-11 -7 -10 -9 1 -30 -6 -81 -29 -18 -8 -37 -11 -42 -8 -6 4 -9 1 -8 -6 2 -7
-4 -13 -12 -14 -8 0 -33 -9 -55 -19 -22 -11 -42 -20 -45 -21 -33 -9 -358 -181
-370 -195 -3 -3 -21 -13 -40 -23 -19 -9 -30 -17 -25 -17 6 0 -11 -11 -37 -24
-26 -13 -45 -26 -41 -30 6 -5 -4 -8 -23 -5 -4 0 -10 -4 -13 -9 -13 -21 -84
-72 -92 -66 -5 3 -9 -2 -9 -11 0 -9 -4 -13 -10 -10 -5 3 -10 1 -10 -4 0 -6 -5
-11 -11 -11 -7 0 -22 -11 -34 -24 -13 -14 -26 -22 -29 -19 -3 4 -6 -1 -6 -10
0 -30 -30 -19 -31 11 -1 15 -3 36 -5 47 -2 11 -6 38 -9 60 -9 73 -14 100 -15
100 -2 0 -9 37 -13 70 -2 17 -7 36 -11 43 -4 7 -4 17 -1 22 3 6 2 10 -3 10 -5
0 -8 10 -7 23 1 12 -2 27 -7 34 -5 7 -7 17 -3 23 3 5 1 10 -5 10 -7 0 -10 7
-6 15 3 8 1 15 -4 15 -5 0 -7 7 -4 15 4 8 1 15 -6 15 -6 0 -8 5 -5 10 4 6 1
18 -7 27 -11 14 -11 16 2 8 12 -6 13 -5 3 6 -7 7 -13 21 -13 31 0 10 -4 18
-10 18 -5 0 -7 7 -4 15 4 8 1 15 -6 15 -6 0 -9 4 -6 9 4 5 -12 53 -34 107 -22
54 -40 104 -40 110 0 7 -5 14 -10 16 -6 2 -12 13 -13 25 0 13 -7 25 -15 28 -7
3 -11 9 -8 13 3 5 -3 18 -13 28 -9 11 -16 24 -14 31 2 6 -3 18 -12 26 -9 9
-22 32 -30 52 -9 19 -19 35 -24 35 -5 0 -12 11 -15 25 -4 14 -11 25 -17 25 -6
0 -7 5 -4 10 3 6 2 10 -3 10 -5 0 -12 9 -15 21 -3 12 -10 18 -16 14 -7 -3 -11
2 -11 14 0 12 -4 21 -10 21 -5 0 -10 6 -10 13 0 7 -8 20 -17 29 -10 8 -28 29
-41 46 -13 17 -36 45 -52 64 -16 18 -30 36 -30 41 0 4 -7 7 -17 7 -9 0 -14 3
-10 6 7 7 -83 94 -96 94 -5 0 -5 5 -2 10 3 6 0 10 -7 10 -8 0 -21 8 -29 18
-25 27 -68 62 -78 62 -5 0 -12 7 -15 16 -4 9 -9 14 -12 11 -3 -3 -14 2 -24 11
-38 35 -50 42 -65 42 -9 0 -13 5 -10 10 3 6 -1 10 -9 10 -9 0 -16 5 -16 10 0
6 -6 10 -14 10 -8 0 -22 7 -30 16 -9 8 -16 13 -16 9 0 -3 -13 3 -30 15 -16 12
-30 18 -30 13 0 -4 -7 1 -15 11 -8 11 -15 16 -15 12 0 -5 -11 -1 -25 8 -13 9
-31 16 -40 16 -8 0 -15 3 -15 8 0 7 -63 32 -87 34 -7 1 -13 6 -13 11 0 5 -7 7
-15 4 -8 -4 -17 -2 -20 4 -4 5 -11 7 -16 4 -5 -4 -9 -2 -9 3 0 6 -24 16 -52
22 -29 7 -57 15 -63 19 -5 3 -17 7 -25 9 -8 1 -26 5 -40 8 -14 3 -37 6 -52 7
-16 1 -28 6 -28 10 0 4 -18 7 -40 5 -22 -1 -40 -5 -40 -9z"/>
</g>
</svg>
